<svg width="36" height="35" viewBox="0 0 36 35" xmlns="http://www.w3.org/2000/svg" xmlns:xlink="http://www.w3.org/1999/xlink" xmlns:figma="http://www.figma.com/figma/ns"><title>logo</title><desc>Created using Figma</desc><use xlink:href="#a" transform="translate(3 3)" fill="#FFF" figma:type="vector-operation"/><defs><path id="a" d="M5.03.058v-1A1 1 0 0 0 4.19.6l.84-.542zm9.71 23.117l-.843.54a1 1 0 0 0 1.659.037l-.817-.577zm6.933-9.818l.816.577a1 1 0 0 0-.825-1.577l.009 1zm-6.985 1.676l-.84.542a1 1 0 0 0 1.659.031l-.82-.573zM0 .19l.842-.54A1 1 0 0 0-1 .19h1zM0 29h-1a1 1 0 0 0 1 1v-1zm4.833 0v1a1 1 0 0 0 1-1h-1zm0-15.493l-.009-1a1 1 0 0 0-.99 1h1zM25.202 0h1a1 1 0 0 0-1.82-.573l.82.573zm4.78.058h1a1 1 0 0 0-1-1v1zM30 28.865v1a1 1 0 0 0 1-1h-1zm-4.798 0h-1a1 1 0 0 0 1 1v-1zM4.189.6l8.623 13.37 1.681-1.083L5.87-.484 4.19.6zM25.161-.942H5.03v2H25.16v-2zm-8.518 14.924L25.98.632 24.34-.516l-9.337 13.351 1.639 1.146zm-.829-1.573l-2.17.02.018 2 2.17-.02-.018-2zm-8.137 1.605l6.22 9.701 1.684-1.08-6.22-9.7-1.684 1.079zm7.879 9.738l6.933-9.818-1.633-1.154-6.934 9.818 1.634 1.154zm6.108-11.395l-5.85.052.018 2 5.85-.052-.018-2zm-6.157 3.25l1.136-1.625-1.64-1.146-1.135 1.624 1.639 1.146zm-2.695-1.636l1.035 1.604 1.68-1.084-1.034-1.604-1.68 1.084zm.832-1.542l-5.134.045.017 2 5.135-.046-.018-2zM-.842.729l8.519 13.285 1.683-1.08L.842-.35-.842.73zM1 29V.19h-2V29h2zm3.833-1H0v2h4.833v-2zm-1-14.493V29h2V13.507h-2zm4.677-1.033l-3.686.033.018 2 3.685-.033-.017-2zM25.202-.942h-.04v2h.04v-2zM25.98.631l.04-.058-1.639-1.146-.04.058L25.98.631zM24.2 0v.058h2V0h-2zm5.781-.942h-4.78v2h4.78v-2zM31 28.865L30.982.057l-2 .002L29 28.866l2-.001zm-5.798 1H30v-2h-4.798v2zm-1-29.807v28.807h2V.058h-2z"/></defs></svg>