<svg width="36" height="35" viewBox="0 0 36 35" version="1.1" xmlns="http://www.w3.org/2000/svg" xmlns:xlink="http://www.w3.org/1999/xlink" xmlns:figma="http://www.figma.com/figma/ns">
<title>logo</title>
<desc>Created using Figma</desc>
<g id="Canvas" transform="translate(1074 1166)" figma:type="canvas">
<g id="logo" figma:type="instance">
<g id="Combined Shape" figma:type="vector-operation">
<use xlink:href="#path0_stroke" transform="translate(-1071 -1163)" fill="#FFFFFF"/>
</g>
</g>
</g>
<defs>
<path id="path0_stroke" d="M 5.02966 0.0579834L 5.02966 -0.942017C 4.6636 -0.942017 4.32678 -0.741996 4.1516 -0.420566C 3.97642 -0.0991357 3.99087 0.292325 4.18927 0.599965L 5.02966 0.0579834ZM 14.7391 23.1752L 13.8973 23.715C 14.077 23.9951 14.3841 24.1675 14.7168 24.1749C 15.0495 24.1824 15.364 24.0238 15.556 23.752L 14.7391 23.1752ZM 21.6726 13.3573L 22.4894 13.9342C 22.7059 13.6277 22.7326 13.2258 22.5585 12.8934C 22.3844 12.561 22.0389 12.354 21.6637 12.3573L 21.6726 13.3573ZM 14.6875 15.0332L 13.8471 15.5752C 14.0277 15.8551 14.3357 16.0268 14.6688 16.033C 15.0018 16.0393 15.3161 15.8793 15.507 15.6063L 14.6875 15.0332ZM 0 0.189697L 0.841798 -0.350096C 0.60215 -0.723822 0.144793 -0.894802 -0.281249 -0.769938C -0.707291 -0.645074 -1 -0.254265 -1 0.189697L 0 0.189697ZM 0 29L -1 29C -1 29.5523 -0.552285 30 2.22045e-16 30L 0 29ZM 4.83337 29L 4.83337 30C 5.38566 30 5.83337 29.5523 5.83337 29L 4.83337 29ZM 4.83337 13.507L 4.8245 12.507C 4.2757 12.5119 3.83337 12.9581 3.83337 13.507L 4.83337 13.507ZM 25.2018 0L 26.2018 0C 26.2018 -0.436601 25.9185 -0.822732 25.5021 -0.953844C 25.0856 -1.08496 24.6323 -0.930737 24.3821 -0.572883L 25.2018 0ZM 29.9824 0.0579834L 30.9824 0.0573732C 30.9821 -0.494673 30.5345 -0.942017 29.9824 -0.942017L 29.9824 0.0579834ZM 30 28.8652L 30 29.8652C 30.2653 29.8652 30.5198 29.7598 30.7073 29.5721C 30.8949 29.3845 31.0002 29.1299 31 28.8646L 30 28.8652ZM 25.2018 28.8652L 24.2018 28.8652C 24.2018 29.4175 24.6495 29.8652 25.2018 29.8652L 25.2018 28.8652ZM 4.18927 0.599965L 12.8122 13.9706L 14.493 12.8866L 5.87005 -0.483998L 4.18927 0.599965ZM 25.1613 -0.942017L 5.02966 -0.942017L 5.02966 1.05798L 25.1613 1.05798L 25.1613 -0.942017ZM 16.6427 13.9824L 25.9807 0.63112L 24.3418 -0.515153L 15.0038 12.8362L 16.6427 13.9824ZM 15.8144 12.4093L 13.6437 12.4286L 13.6615 14.4285L 15.8321 14.4093L 15.8144 12.4093ZM 7.67676 14.014L 13.8973 23.715L 15.5809 22.6354L 9.36035 12.9345L 7.67676 14.014ZM 15.556 23.752L 22.4894 13.9342L 20.8558 12.7804L 13.9223 22.5983L 15.556 23.752ZM 21.6637 12.3573L 15.8144 12.4093L 15.8321 14.4093L 21.6815 14.3573L 21.6637 12.3573ZM 15.507 15.6063L 16.6427 13.9824L 15.0038 12.8362L 13.868 14.4601L 15.507 15.6063ZM 12.8122 13.9706L 13.8471 15.5752L 15.5279 14.4912L 14.493 12.8866L 12.8122 13.9706ZM 13.6437 12.4286L 8.50966 12.4743L 8.52745 14.4742L 13.6615 14.4285L 13.6437 12.4286ZM -0.841798 0.72949L 7.67676 14.014L 9.36035 12.9345L 0.841798 -0.350096L -0.841798 0.72949ZM 1 29L 1 0.189697L -1 0.189697L -1 29L 1 29ZM 4.83337 28L 0 28L 0 30L 4.83337 30L 4.83337 28ZM 3.83337 13.507L 3.83337 29L 5.83337 29L 5.83337 13.507L 3.83337 13.507ZM 8.50968 12.4743L 4.8245 12.507L 4.84225 14.5069L 8.52743 14.4742L 8.50968 12.4743ZM 25.2018 -0.942017L 25.1613 -0.942017L 25.1613 1.05798L 25.2018 1.05798L 25.2018 -0.942017ZM 25.9809 0.630867L 26.0214 0.572883L 24.3821 -0.572883L 24.3416 -0.5149L 25.9809 0.630867ZM 24.2018 0L 24.2018 0.0579834L 26.2018 0.0579834L 26.2018 0L 24.2018 0ZM 29.9824 -0.942017L 25.2018 -0.942017L 25.2018 1.05798L 29.9824 1.05798L 29.9824 -0.942017ZM 31 28.8646L 30.9824 0.0573732L 28.9824 0.0585936L 29 28.8658L 31 28.8646ZM 25.2018 29.8652L 30 29.8652L 30 27.8652L 25.2018 27.8652L 25.2018 29.8652ZM 24.2018 0.0579834L 24.2018 28.8652L 26.2018 28.8652L 26.2018 0.0579834L 24.2018 0.0579834Z"/>
</defs>
</svg>
