<svg xmlns="http://www.w3.org/2000/svg" viewBox="0 0 409.477 409.477" width="512" height="512"><g fill="#FFF"><path d="M397.284 376.231h-12.193V53.519c0-24.621-18.232-44.658-40.643-44.658H232.68c-22.41 0-40.643 20.037-40.643 44.658v59.265c-3.268-.764-6.633-1.301-10.161-1.301H70.109c-22.41 0-40.643 16.428-40.643 36.635V376.23H12.193C5.462 376.231 0 381.694 0 388.424s5.462 12.193 12.193 12.193h385.091c6.73 0 12.193-5.462 12.193-12.193s-5.462-12.193-12.193-12.193zM61.98 148.119c0-1.195 2.853-4.121 8.129-4.121h111.768c5.275 0 8.129 2.918 8.129 4.121v228.112H61.98V148.119zm162.572-94.6c0-7.161 4.284-12.144 8.129-12.144h111.768c3.845 0 8.129 4.983 8.129 12.144v322.713H224.552V53.519z"/><path d="M268.812 55.12H248.71c-6.495 0-11.77 5.267-11.77 11.77v20.102c0 6.495 5.267 11.77 11.77 11.77h20.102c6.495 0 11.77-5.267 11.77-11.77V66.89c0-6.503-5.275-11.77-11.77-11.77zM268.812 112.02H248.71c-6.495 0-11.77 5.267-11.77 11.77v20.102c0 6.495 5.267 11.77 11.77 11.77h20.102c6.495 0 11.77-5.267 11.77-11.77V123.79c0-6.503-5.275-11.77-11.77-11.77zM268.812 168.92H248.71c-6.495 0-11.77 5.267-11.77 11.77v20.102c0 6.495 5.267 11.77 11.77 11.77h20.102c6.495 0 11.77-5.267 11.77-11.77V180.69c0-6.503-5.275-11.77-11.77-11.77zM328.419 55.12h-20.102c-6.495 0-11.77 5.267-11.77 11.77v20.102c0 6.495 5.267 11.77 11.77 11.77h20.102c6.495 0 11.77-5.267 11.77-11.77V66.89c0-6.503-5.267-11.77-11.77-11.77zM328.419 112.02h-20.102c-6.495 0-11.77 5.267-11.77 11.77v20.102c0 6.495 5.267 11.77 11.77 11.77h20.102c6.495 0 11.77-5.267 11.77-11.77V123.79c0-6.503-5.267-11.77-11.77-11.77zM328.419 168.92h-20.102c-6.495 0-11.77 5.267-11.77 11.77v20.102c0 6.495 5.267 11.77 11.77 11.77h20.102c6.495 0 11.77-5.267 11.77-11.77V180.69c0-6.503-5.267-11.77-11.77-11.77zM268.812 225.82H248.71c-6.495 0-11.77 5.267-11.77 11.77v20.102c0 6.495 5.267 11.77 11.77 11.77h20.102c6.495 0 11.77-5.267 11.77-11.77V237.59c0-6.503-5.275-11.77-11.77-11.77zM268.812 282.72H248.71c-6.495 0-11.77 5.267-11.77 11.77v20.102c0 6.495 5.267 11.77 11.77 11.77h20.102c6.495 0 11.77-5.267 11.77-11.77V294.49c0-6.503-5.275-11.77-11.77-11.77zM328.419 225.82h-20.102c-6.495 0-11.77 5.267-11.77 11.77v20.102c0 6.495 5.267 11.77 11.77 11.77h20.102c6.495 0 11.77-5.267 11.77-11.77V237.59c0-6.503-5.267-11.77-11.77-11.77zM328.419 282.72h-20.102c-6.495 0-11.77 5.267-11.77 11.77v20.102c0 6.495 5.267 11.77 11.77 11.77h20.102c6.495 0 11.77-5.267 11.77-11.77V294.49c0-6.503-5.267-11.77-11.77-11.77zM106.24 168.92H86.139c-6.495 0-11.77 5.267-11.77 11.77v20.102c0 6.495 5.267 11.77 11.77 11.77h20.102c6.495 0 11.77-5.267 11.77-11.77V180.69c0-6.503-5.276-11.77-11.771-11.77zM165.847 168.92h-20.102c-6.495 0-11.77 5.267-11.77 11.77v20.102c0 6.495 5.267 11.77 11.77 11.77h20.102c6.495 0 11.77-5.267 11.77-11.77V180.69c0-6.503-5.267-11.77-11.77-11.77zM106.24 225.82H86.139c-6.495 0-11.77 5.267-11.77 11.77v20.102c0 6.495 5.267 11.77 11.77 11.77h20.102c6.495 0 11.77-5.267 11.77-11.77V237.59c0-6.503-5.276-11.77-11.771-11.77zM106.24 282.72H86.139c-6.495 0-11.77 5.267-11.77 11.77v20.102c0 6.495 5.267 11.77 11.77 11.77h20.102c6.495 0 11.77-5.267 11.77-11.77V294.49c0-6.503-5.276-11.77-11.771-11.77zM165.847 225.82h-20.102c-6.495 0-11.77 5.267-11.77 11.77v20.102c0 6.495 5.267 11.77 11.77 11.77h20.102c6.495 0 11.77-5.267 11.77-11.77V237.59c0-6.503-5.267-11.77-11.77-11.77zM165.847 282.72h-20.102c-6.495 0-11.77 5.267-11.77 11.77v20.102c0 6.495 5.267 11.77 11.77 11.77h20.102c6.495 0 11.77-5.267 11.77-11.77V294.49c0-6.503-5.267-11.77-11.77-11.77z"/></g></svg>