<svg xmlns="http://www.w3.org/2000/svg" viewBox="0 0 410.986 410.986" width="512" height="512"><path d="M355.105 118.905c-14.799 0-22.337-6.899-28.988-12.986-6.005-5.497-10.749-9.839-20.886-9.839-10.137 0-14.881 4.342-20.887 9.839-6.65 6.087-14.188 12.986-28.988 12.986-14.8 0-22.337-6.899-28.988-12.986-6.005-5.497-10.748-9.839-20.885-9.839-10.136 0-14.879 4.342-20.884 9.839-6.65 6.087-14.188 12.986-28.988 12.986-14.798 0-22.334-6.899-28.984-12.986-6.004-5.497-10.747-9.839-20.882-9.839-10.136 0-14.879 4.342-20.884 9.839-6.65 6.087-14.188 12.986-28.987 12.986-14.8 0-22.338-6.899-28.989-12.986C20.88 100.422 16.137 96.08 6 96.08a6 6 0 0 1 0-12c14.799 0 22.337 6.899 28.988 12.986 6.005 5.497 10.749 9.839 20.886 9.839 10.136 0 14.879-4.342 20.884-9.838 6.65-6.088 14.188-12.987 28.987-12.987 14.798 0 22.335 6.9 28.985 12.987 6.004 5.497 10.746 9.838 20.881 9.838 10.137 0 14.88-4.342 20.885-9.838 6.65-6.088 14.188-12.987 28.987-12.987 14.8 0 22.337 6.899 28.988 12.987 6.005 5.496 10.749 9.838 20.885 9.838 10.138 0 14.881-4.342 20.886-9.838 6.651-6.088 14.189-12.987 28.989-12.987s22.338 6.899 28.989 12.987c6.005 5.496 10.748 9.838 20.885 9.838 10.139 0 14.883-4.342 20.89-9.839 6.651-6.087 14.19-12.986 28.991-12.986a6 6 0 0 1 0 12c-10.139 0-14.883 4.342-20.89 9.839-6.651 6.087-14.189 12.986-28.991 12.986zM355.105 170.905c-14.799 0-22.337-6.899-28.988-12.986-6.005-5.497-10.749-9.839-20.886-9.839-10.137 0-14.881 4.342-20.887 9.839-6.65 6.087-14.188 12.986-28.988 12.986-14.8 0-22.337-6.899-28.988-12.986-6.005-5.497-10.748-9.839-20.885-9.839-10.136 0-14.879 4.342-20.884 9.839-6.65 6.087-14.188 12.986-28.988 12.986-14.798 0-22.334-6.899-28.984-12.986-6.004-5.497-10.747-9.839-20.882-9.839-10.136 0-14.879 4.342-20.884 9.839-6.65 6.087-14.188 12.986-28.987 12.986-14.8 0-22.338-6.899-28.989-12.986C20.88 152.422 16.137 148.08 6 148.08a6 6 0 0 1 0-12c14.799 0 22.337 6.899 28.988 12.986 6.005 5.497 10.749 9.839 20.886 9.839 10.136 0 14.879-4.342 20.884-9.838 6.65-6.088 14.188-12.987 28.987-12.987 14.798 0 22.335 6.9 28.985 12.987 6.004 5.497 10.746 9.838 20.881 9.838 10.137 0 14.88-4.342 20.885-9.838 6.65-6.088 14.188-12.987 28.987-12.987 14.8 0 22.337 6.899 28.988 12.987 6.005 5.496 10.749 9.838 20.885 9.838 10.138 0 14.881-4.342 20.886-9.838 6.651-6.088 14.189-12.987 28.989-12.987s22.338 6.899 28.989 12.987c6.005 5.496 10.748 9.838 20.885 9.838 10.139 0 14.883-4.342 20.89-9.839 6.651-6.087 14.19-12.986 28.991-12.986a6 6 0 0 1 0 12c-10.139 0-14.883 4.342-20.89 9.839-6.651 6.087-14.189 12.986-28.991 12.986zM355.105 222.906c-14.799 0-22.337-6.899-28.988-12.986-6.005-5.497-10.749-9.839-20.886-9.839-10.137 0-14.881 4.342-20.887 9.838-6.65 6.088-14.188 12.987-28.988 12.987-14.8 0-22.337-6.899-28.988-12.987-6.005-5.496-10.748-9.838-20.885-9.838-10.136 0-14.879 4.342-20.884 9.838-6.65 6.088-14.188 12.987-28.988 12.987-14.798 0-22.334-6.899-28.984-12.987-6.004-5.496-10.747-9.838-20.882-9.838-10.136 0-14.879 4.342-20.884 9.838-6.65 6.088-14.188 12.987-28.987 12.987-14.8 0-22.338-6.899-28.989-12.987-6.005-5.496-10.749-9.838-20.885-9.838a6 6 0 0 1 0-12c14.799 0 22.337 6.899 28.988 12.986 6.005 5.497 10.749 9.839 20.886 9.839 10.136 0 14.879-4.342 20.884-9.839 6.65-6.087 14.188-12.986 28.987-12.986 14.798 0 22.335 6.899 28.985 12.987 6.004 5.496 10.746 9.838 20.881 9.838 10.137 0 14.88-4.342 20.885-9.839 6.65-6.087 14.188-12.986 28.987-12.986 14.8 0 22.337 6.899 28.988 12.986 6.005 5.497 10.749 9.839 20.885 9.839 10.138 0 14.881-4.342 20.886-9.839 6.651-6.087 14.189-12.986 28.989-12.986s22.338 6.899 28.989 12.986c6.005 5.497 10.748 9.839 20.885 9.839 10.139 0 14.883-4.342 20.89-9.839 6.651-6.087 14.19-12.986 28.991-12.986a6 6 0 0 1 0 12c-10.139 0-14.883 4.342-20.89 9.839-6.651 6.087-14.189 12.986-28.991 12.986zM355.105 274.906c-14.799 0-22.337-6.899-28.988-12.986-6.005-5.497-10.749-9.839-20.886-9.839-10.137 0-14.881 4.342-20.887 9.838-6.65 6.088-14.188 12.987-28.988 12.987-14.8 0-22.337-6.899-28.988-12.987-6.005-5.496-10.748-9.838-20.885-9.838-10.136 0-14.879 4.342-20.884 9.838-6.65 6.088-14.188 12.987-28.988 12.987-14.798 0-22.334-6.899-28.984-12.987-6.004-5.496-10.747-9.838-20.882-9.838-10.136 0-14.879 4.342-20.884 9.838-6.65 6.088-14.188 12.987-28.987 12.987-14.8 0-22.338-6.899-28.989-12.987-6.005-5.496-10.749-9.838-20.885-9.838a6 6 0 0 1 0-12c14.799 0 22.337 6.899 28.988 12.986 6.005 5.497 10.749 9.839 20.886 9.839 10.136 0 14.879-4.342 20.884-9.839 6.65-6.087 14.188-12.986 28.987-12.986 14.798 0 22.335 6.899 28.985 12.987 6.004 5.496 10.746 9.838 20.881 9.838 10.137 0 14.88-4.342 20.885-9.839 6.65-6.087 14.188-12.986 28.987-12.986 14.8 0 22.337 6.899 28.988 12.986 6.005 5.497 10.749 9.839 20.885 9.839 10.138 0 14.881-4.342 20.886-9.839 6.651-6.087 14.189-12.986 28.989-12.986s22.338 6.899 28.989 12.986c6.005 5.497 10.748 9.839 20.885 9.839 10.139 0 14.883-4.342 20.89-9.839 6.651-6.087 14.19-12.986 28.991-12.986a6 6 0 0 1 0 12c-10.139 0-14.883 4.342-20.89 9.839-6.651 6.087-14.189 12.986-28.991 12.986zM355.105 326.906c-14.799 0-22.337-6.899-28.988-12.986-6.005-5.497-10.749-9.839-20.886-9.839-10.137 0-14.881 4.342-20.887 9.838-6.65 6.088-14.188 12.987-28.988 12.987-14.8 0-22.337-6.899-28.988-12.987-6.005-5.496-10.748-9.838-20.885-9.838-10.136 0-14.879 4.342-20.884 9.838-6.65 6.088-14.188 12.987-28.988 12.987-14.798 0-22.334-6.899-28.984-12.987-6.004-5.496-10.747-9.838-20.882-9.838-10.136 0-14.879 4.342-20.884 9.838-6.65 6.088-14.188 12.987-28.987 12.987-14.8 0-22.338-6.899-28.989-12.987-6.005-5.496-10.749-9.838-20.885-9.838a6 6 0 0 1 0-12c14.799 0 22.337 6.899 28.988 12.986 6.005 5.497 10.749 9.839 20.886 9.839 10.136 0 14.879-4.342 20.884-9.839 6.65-6.087 14.188-12.986 28.987-12.986 14.798 0 22.335 6.899 28.985 12.987 6.004 5.496 10.746 9.838 20.881 9.838 10.137 0 14.88-4.342 20.885-9.839 6.65-6.087 14.188-12.986 28.987-12.986 14.8 0 22.337 6.899 28.988 12.986 6.005 5.497 10.749 9.839 20.885 9.839 10.138 0 14.881-4.342 20.886-9.839 6.651-6.087 14.189-12.986 28.989-12.986s22.338 6.899 28.989 12.986c6.005 5.497 10.748 9.839 20.885 9.839 10.139 0 14.883-4.342 20.89-9.839 6.651-6.087 14.19-12.986 28.991-12.986a6 6 0 1 1 0 12c-10.139 0-14.883 4.342-20.89 9.839-6.651 6.087-14.189 12.986-28.991 12.986z" fill="#FFF"/></svg>