<?xml version="1.0" standalone="no"?>
<!DOCTYPE svg PUBLIC "-//W3C//DTD SVG 20010904//EN"
 "http://www.w3.org/TR/2001/REC-SVG-20010904/DTD/svg10.dtd">
<svg version="1.0" xmlns="http://www.w3.org/2000/svg"
 width="144.000000pt" height="144.000000pt" viewBox="0 0 144.000000 144.000000"
 preserveAspectRatio="xMidYMid meet">
<metadata>
Created by potrace 1.14, written by Peter Selinger 2001-2017
</metadata>
<g transform="translate(0.000000,144.000000) scale(0.100000,-0.100000)"
fill="#000000" stroke="none">
<path d="M574 1425 c-219 -48 -407 -194 -499 -390 -57 -121 -70 -176 -69 -315
0 -102 4 -139 23 -200 75 -245 247 -416 491 -491 58 -18 100 -23 185 -23 135
-1 172 5 272 43 214 83 367 250 438 481 26 84 28 266 4 360 -63 246 -239 434
-481 515 -100 33 -263 42 -364 20z"/>
</g>
</svg>
