<svg id="Слой_1" xmlns="http://www.w3.org/2000/svg" viewBox="0 0 271 33.9"><style>.st0{fill:#61b739}.st1{fill:#3f7c20}.st2{fill-rule:evenodd;clip-rule:evenodd;fill:#61b739}</style><path class="st0" d="M57.3 18.3H47V.3h5.2v14.1h5.1v3.9zm18.5 0h-5.6l-.8-2.4h-6l-.8 2.4h-4.8L65 .3h4.2l6.6 18zm-7.6-5.8l-.9-2.9c-.2-.6-.5-1.6-.9-2.8-.1.5-.4 1.5-.8 2.9l-1 2.9h3.6v-.1zm20-8.3V.3H74.6v3.9h4.2v14.1H84V4.2h4.2zm7.7 14.1h-5.3V.3h5.3v18zm16.7-14.1h-7.4v3.6h6.1v3.7h-6.1v6.8H100V.3h12.6v3.9zM130.3.3v10.2c0 2.7-.5 4.6-1.5 5.8-1.2 1.5-3.3 2.2-6.3 2.2-2.9 0-5-.7-6.2-2.2-1-1.3-1.5-3.2-1.5-5.8V.3h5.3v10.2c0 1.4.1 2.3.3 2.8.3.8 1.1 1.2 2.2 1.2 1.2 0 1.9-.4 2.3-1.2.2-.4.2-1.4.2-2.8V.3h5.2zm19.8 18h-3l-8.8-9.2v9.2H134V.3h3.1l8.6 9.2V.3h4.3v18h.1zm19.6-9.1c0 2.8-.8 5-2.3 6.7-1.5 1.6-3.7 2.4-6.5 2.4h-6.7V.3h7c2.8 0 4.9.8 6.4 2.3 1.4 1.6 2.1 3.8 2.1 6.6zm-5.4 0c0-1.9-.3-3.2-.9-3.9-.6-.7-1.7-1.1-3.2-1.1h-.8v10.2h.7c1.5 0 2.6-.4 3.3-1.2.7-.8 1-2.1.9-4zm13.4 9.1h-5.3V.3h5.3v18zm17.4-5.8c0 1.7-.6 3-1.7 4-1.3 1.2-3.3 1.8-5.9 1.8-1.9 0-4.2-.4-6.9-1.3l1-3.8c2 .8 3.8 1.1 5.3 1.1 1.9 0 2.9-.5 2.8-1.6 0-.5-.5-.9-1.4-1.2-.1 0-.8-.2-2.1-.5-3.6-.7-5.4-2.5-5.4-5.2 0-1.6.5-3 1.7-4.1 1.3-1.2 3.3-1.9 5.9-1.9 1.9 0 4 .5 6.3 1.5l-1.2 3.8c-1.7-.8-3.2-1.2-4.6-1.2-1.8 0-2.7.5-2.6 1.4 0 .4.7.8 1.9 1.1l2 .5c3.3.8 4.9 2.7 4.9 5.6zm14.4-8.3h-4.2v14.1h-5.2V4.2H196V.3h13.5v3.9zm4 14.1v-4.5h-5.3v4.5h5.3zm15.8-1.3c-2.3 1-4.3 1.5-6 1.5-2.7 0-4.8-1-6.4-2.9-1.4-1.7-2-3.9-2-6.5s.7-4.7 2-6.4c1.5-1.9 3.6-2.8 6.3-2.8 1.5 0 3.5.5 5.8 1.4l-1 3.6c-1.8-.7-3-1-3.8-1-1.4 0-2.4.4-3 1.2-.6.8-.9 2.1-.9 3.9 0 3.5 1.3 5.3 4 5.3.8 0 2.2-.3 4.1-1l.9 3.7zM248 9.3c0 2.7-.6 4.8-1.9 6.4-1.5 1.9-3.8 2.9-7 2.9s-5.5-1-7-2.9c-1.2-1.6-1.9-3.7-1.9-6.4s.6-4.8 1.9-6.4c1.5-1.9 3.8-2.9 7-2.9s5.5 1 7 2.9c1.3 1.6 1.9 3.7 1.9 6.4zm-5.4 0c0-3.5-1.2-5.2-3.5-5.2s-3.5 1.7-3.5 5.2 1.2 5.2 3.5 5.2 3.5-1.7 3.5-5.2zm28.4 9h-5.3v-7.9l-4 7.9H259l-4-7.8v7.8h-4.2V.3h4.5l5.5 10.9L266.1.3h4.9v18z"/><path class="st1" d="M47.9 28v4.1h-1.1v-5h3.5v.9h-2.4zM57.1 32.1V28h-1.5l-.1 2.2c0 1.3-.6 2-1.5 2-.2 0-.5 0-.7-.1v-.9h.4c.3 0 .7-.2.7-1.2l.1-2.9h3.7v5h-1.1zM64.8 26.9c1.2 0 2 .4 2 1.5V31c0 .3.1.4.3.4h.3v.8c-.3.1-.5.1-.7.1-.4 0-.7-.2-.8-.6-.5.4-1.1.6-1.7.6-1 0-1.7-.6-1.7-1.5 0-1.3 1.2-1.4 2.2-1.6.8-.1 1-.1 1.1-.3 0-.1.1-.2.1-.4 0-.5-.3-.8-1-.8s-1 .2-1.1.9h-1c0-1.2.8-1.7 2-1.7zm-.2 2.9c-.5.1-1.1.2-1.1.8 0 .5.3.7.9.7.5 0 .9-.1 1.1-.4.2-.2.2-.6.2-.9v-.6c-.3.4-.7.4-1.1.4zM74 32.1h-2.6v-5h2.7c.9 0 1.5.4 1.5 1.2 0 .5-.2.8-.7 1.1.6.2.9.6.9 1.3.1.9-.6 1.4-1.8 1.4zm-1.5-4.2V29h1.4c.4 0 .6-.2.6-.6 0-.4-.2-.5-.7-.5h-1.3zm0 2v1.4H74c.5 0 .7-.2.7-.7 0-.4-.3-.7-.7-.7h-1.5zM80.1 32.1v-5h1.1V29h2.2v-1.9h1.1v5h-1.1v-2.2h-2.2v2.2h-1.1zM91.4 32.1H89v-5h1.1v1.8h1.3c1.1 0 1.7.6 1.7 1.6s-.6 1.6-1.7 1.6zm-.1-2.3h-1.2v1.5h1.2c.5 0 .7-.3.7-.7 0-.5-.2-.8-.7-.8zm3.6-2.7v5h-1.1v-5h1.1zM99.4 32.1v-5h1.1v3.6l1.9-3.6h1.4v5h-1.1v-3.6l-1.9 3.6h-1.4zm2.2-5.7c-1 0-1.5-.4-1.6-1.4h.6c.1.5.4.7 1 .7s.9-.2 1-.7h.6c-.2 1-.7 1.4-1.6 1.4zM116.6 32.2c-1.5 0-2.4-1.1-2.4-2.6 0-1.6 1-2.7 2.5-2.7 1.3 0 2.1.7 2.2 1.8h-1.1c-.1-.6-.5-1-1.1-1-.8 0-1.4.7-1.4 1.8s.5 1.8 1.3 1.8c.7 0 1.1-.4 1.2-1.1h1.1c-.2 1.2-1.1 2-2.3 2zM125.2 26.9c1.2 0 2 .4 2 1.5V31c0 .3.1.4.3.4h.3v.8c-.3.1-.5.1-.7.1-.4 0-.7-.2-.8-.6-.5.4-1.1.6-1.7.6-1 0-1.7-.6-1.7-1.5 0-1.3 1.2-1.4 2.2-1.6.8-.1 1-.1 1.1-.3 0-.1.1-.2.1-.4 0-.5-.3-.8-1-.8s-1 .2-1.1.9h-1c-.1-1.2.8-1.7 2-1.7zm-.2 2.9c-.5.1-1.1.2-1.1.8 0 .5.3.7.9.7.5 0 .9-.1 1.1-.4.2-.2.2-.6.2-.9v-.6c-.3.4-.7.4-1.1.4zM131.8 32.1v-5h1.1v3.6l1.9-3.6h1.4v5h-1.1v-3.6l-1.9 3.6h-1.4zm2.2-5.7c-1 0-1.5-.4-1.6-1.4h.6c.1.5.4.7 1 .7s.9-.2 1-.7h.6c-.1 1-.6 1.4-1.6 1.4zM142.9 28v4.1h-1.1V28h-1.6v-.9h4.4v.9h-1.7zM210.1 29.6c0 1.6-1 2.6-2.5 2.6-1.6 0-2.5-1-2.5-2.6s1-2.6 2.5-2.6c1.5-.1 2.5 1 2.5 2.6zm-3.9 0c0 1.1.5 1.8 1.4 1.8.9 0 1.4-.7 1.4-1.8s-.5-1.8-1.4-1.8c-.9 0-1.4.7-1.4 1.8zM182 26.9c1.2 0 2 .4 2 1.5V31c0 .3.1.4.3.4h.3v.8c-.3.1-.5.1-.7.1-.4 0-.7-.2-.8-.6-.5.4-1.1.6-1.7.6-1 0-1.7-.6-1.7-1.5 0-1.3 1.2-1.4 2.2-1.6.8-.1 1-.1 1.1-.3 0-.1.1-.2.1-.4 0-.5-.3-.8-1-.8s-1 .2-1.1.9h-1c-.1-1.2.8-1.7 2-1.7zm-.2 2.9c-.5.1-1.1.2-1.1.8 0 .5.3.7.9.7.5 0 .9-.1 1.1-.4.2-.2.2-.6.2-.9v-.6c-.3.4-.7.4-1.1.4zM189.7 28v4.1h-1.1v-5h3.5v.9h-2.4zM197.1 27.8c.3-.6 1-.8 1.6-.8 1.4 0 2.3 1 2.3 2.6s-.9 2.6-2.2 2.6c-.7 0-1.2-.2-1.6-.8v2.5h-1.1v-6.8h1v.7zm0 1.8c0 1.1.5 1.7 1.4 1.7.8 0 1.4-.7 1.4-1.7 0-1.1-.5-1.8-1.4-1.8-.9 0-1.4.7-1.4 1.8zM216.8 32.2c-1.1 0-1.9-.5-2.3-1.4-.2-.4-.3-.9-.3-1.6 0-1 .1-2.2.6-2.9.4-.7 1.1-1 2-1 .6 0 .9 0 1-.3h1.1c-.2 1.2-1.1 1.1-2.2 1.2-1 .1-1.5.8-1.7 1.9.4-.6.9-1 1.9-1 1.3 0 2.3 1 2.3 2.6 0 1.5-1 2.5-2.4 2.5zm-.1-4.2c-.8 0-1.3.7-1.3 1.7s.5 1.7 1.3 1.7 1.3-.7 1.3-1.7c.1-1.1-.5-1.7-1.3-1.7zM159.7 29.6c0 1.6-1 2.6-2.5 2.6-1.6 0-2.5-1-2.5-2.6s1-2.6 2.5-2.6c1.6-.1 2.5 1 2.5 2.6zm-3.9 0c0 1.1.5 1.8 1.4 1.8.9 0 1.4-.7 1.4-1.8s-.5-1.8-1.4-1.8c-.8 0-1.4.7-1.4 1.8zM165.5 32.2c-1.1 0-1.9-.5-2.3-1.4-.2-.4-.3-.9-.3-1.6 0-1 .1-2.2.6-2.9.4-.7 1.1-1 2-1 .6 0 .9 0 1-.3h1.1c-.2 1.2-1.1 1.1-2.2 1.2-1 .1-1.5.8-1.7 1.9.4-.6.9-1 1.9-1 1.3 0 2.3 1 2.3 2.6 0 1.5-1 2.5-2.4 2.5zm-.1-4.2c-.8 0-1.3.7-1.3 1.7s.5 1.7 1.3 1.7 1.3-.7 1.3-1.7c.1-1.1-.5-1.7-1.3-1.7zM223.5 32.1v-5h1.1v3.6l1.9-3.6h1.4v5h-1.1v-3.6l-1.9 3.6h-1.4zM234.3 32.2c-1.4 0-2.2-.7-2.2-1.7h1.1c.1.7.6.8 1.1.8.6 0 1-.3 1-.7 0-.4-.2-.7-1-.7h-.6v-.8h.4c.6 0 1-.2 1-.7 0-.4-.3-.6-.9-.6-.6 0-.9.3-1 .7h-1.1c.1-1.3 1.2-1.6 2.2-1.6 1 0 1.9.4 1.9 1.3 0 .6-.4 1-.8 1.1.5.1 1 .5 1 1.2.1 1.2-1 1.7-2.1 1.7zM240.8 32.1v-5h1.1V29h2.2v-1.9h1.1v5h-1.1v-2.2h-2.2v2.2h-1.1zM251.9 32.2c-1.5 0-2.4-1.1-2.4-2.6 0-1.6 1-2.7 2.4-2.7 1.5 0 2.4 1.1 2.4 2.8v.1h-3.7c0 1 .5 1.6 1.4 1.6.6 0 1-.3 1.2-.9h1.1c-.4 1.1-1.3 1.7-2.4 1.7zm-.1-4.4c-.7 0-1.2.5-1.3 1.3h2.6c-.1-.8-.6-1.3-1.3-1.3zM268.7 32.2c-1.5 0-2.4-1.1-2.4-2.6 0-1.6 1-2.7 2.4-2.7 1.5 0 2.4 1.1 2.4 2.8v.1h-3.7c0 1 .5 1.6 1.4 1.6.6 0 1-.3 1.2-.9h1.1c-.4 1.1-1.3 1.7-2.4 1.7zm-.1-4.4c-.7 0-1.2.5-1.3 1.3h2.6c-.1-.8-.5-1.3-1.3-1.3zM260.6 32.2c-1.5 0-2.4-1.1-2.4-2.6 0-1.6 1-2.7 2.5-2.7 1.3 0 2.1.7 2.2 1.8h-1.1c-.1-.6-.5-1-1.1-1-.8 0-1.4.7-1.4 1.8s.5 1.8 1.3 1.8c.7 0 1.1-.4 1.2-1.1h1.1c-.1 1.2-1 2-2.3 2zM0 13.4v3c.4-.2.7-.5 1.1-.7.1-.1.2-.1.2-.2-.4-.6-.8-1.4-1.3-2.1zm0-6.2v3c1 1.5 2 3 2.9 4.5.3-.2.5-.3.8-.4.2-.2.5-.3.8-.4C3 11.5 1.6 9.3 0 7.2zm20.2-1.1c-1 .4-2.1.8-3.1 1.3-.1.1-.2.1-.4.2-.4.2-.8.4-1.3.6-.2-.4-.5-.9-.8-1.3L11.9 6c.6 1 1.2 1.9 1.8 2.9-.2.1-.3.2-.5.2-.4.2-.7.4-1.1.5-.3-.6-.7-1.1-1-1.7-.1-.3-.3-.6-.5-.9-.4-.6-.8-1.2-1.1-1.8-.9-.3-1.8-.5-2.7-.7 1.4 1.9 2.6 3.9 3.8 5.9-.5.3-1.1.5-1.6.8-.3-.5-.6-1.1-1-1.6 0-.2-.2-.5-.4-.8-.4-.6-.7-1.2-1.1-1.7-.3-.5-.6-1-1-1.4 0 0 0-.1-.1-.1-.1-.3-.3-.6-.5-.9-.2-.2-.4-.5-.6-.8-.9-.2-1.8-.4-2.7-.5 2.1 2.8 4.1 5.7 5.9 8.7-.4.2-.7.4-1.1.6-.2.1-.3.2-.5.3C4 9.9 2.1 7-.1 4.2V.5c7.2 1.1 13.8 2.9 20.3 5.6z"/><path class="st2" d="M37.9 13.8v3.5C24.5 19 11.8 23.1 0 29.4v-2.7c11.8-6.5 24.5-10.9 37.9-12.9zM0 21.5v2.6c11.8-6.7 24.5-11.4 37.9-13.7V7.1C24.5 9.6 11.8 14.6 0 21.5zm14.5 10.6h23.4V28c-8.1.5-15.9 1.8-23.4 4.1zm5.7-26c-1 .4-2.1.8-3.1 1.3-.1.1-.2.1-.4.2-.4.2-.8.4-1.3.6-.5.2-1.1.5-1.6.7-.2.1-.3.2-.5.2-.9.4-1.8.9-2.7 1.3-.5.3-1.1.5-1.6.8-.5.3-1.1.6-1.6.8-.5.3-1 .5-1.5.8-.5.3-1 .6-1.6.9-.3.1-.5.3-.8.4-.3.1-.5.3-.8.4l-1.5.9c-.1.1-.2.1-.2.2-.3.4-.6.6-1 .8V19C11.8 11.8 24.5 6.6 37.9 3.7V.5c-6.1 1.4-12 3.3-17.7 5.6zM0 32h6c10.1-4.2 20.8-6.8 31.8-7.7v-3.6C24.6 22.2 11.8 26.1 0 32z"/></svg>